<?xml version="1.0" encoding="utf-8" ?><svg xmlns="http://www.w3.org/2000/svg" xmlns:xlink="http://www.w3.org/1999/xlink" width="4093" height="573" viewBox="0 0 4093 573"><path transform="scale(0.999233 1)" d="M1455.67 132.596C1454.97 141.333 1454.24 149.82 1453.96 158.582C1452.21 173.035 1452.7 187.109 1452.1 201.503C1450.71 234.615 1452.18 267.281 1451.82 300.395C1454.83 296.548 1457.87 292.73 1460.95 288.941C1479.35 266.496 1494.79 257.778 1523.4 255.011C1631.3 244.576 1662.82 372.872 1603.69 444.996C1573.3 482.063 1515.02 494.357 1474.31 467.998C1468.24 464.067 1459.83 455.567 1453.78 450.516C1445.91 454.995 1422.9 476.785 1415.78 474.795C1413.77 470.612 1415.96 422.066 1416 413.904L1415.75 212.829C1415.49 188.427 1416.48 157.307 1414.79 133.52C1427.04 134.475 1443.62 134.409 1455.67 132.596ZM1527.96 465.553C1584.24 454.157 1599.46 382.27 1588.57 334.609C1578.57 290.847 1558.52 271.607 1513.18 273.522C1453.66 281.323 1446.01 348.478 1451.16 396.731C1453.57 419.235 1461.89 440.661 1480.43 454.574C1496.29 466.493 1509.18 467.02 1527.96 465.553Z"/><path transform="scale(0.999233 1)" d="M1072.57 169.371C1096.27 166.831 1128.56 175.082 1140.22 197.76C1159.15 234.571 1124.96 269.079 1095.92 287.048C1092.55 289.135 1080.92 296.969 1079.12 299.729C1081.79 309.898 1150.31 383.48 1161.41 395.466C1162.11 396.226 1164.36 396.666 1165.55 396.704C1170.91 392.612 1201.68 346.375 1206.59 337.592C1210.54 330.511 1215.87 317.609 1221.74 309.082C1227.58 315.584 1233.85 321.68 1240.52 327.329C1229.27 341.967 1217.85 357.103 1206.38 371.537C1196.14 384.427 1184.5 395.181 1175.55 409.529C1176.9 414.391 1218.1 457.261 1224.94 464.339C1228.32 468.008 1233.04 472.116 1236.78 475.558C1213.96 475.709 1202.84 473.464 1177.87 475.635C1172.33 464.838 1158.06 450.69 1150.26 438.893C1135.59 446.864 1122.7 458.257 1106.58 466.201C1071.88 483.295 1041.03 487.565 1003.83 475.809C963.44 463.047 942.237 425.12 954.884 384.382C968.406 344.207 1002.79 326.268 1038.34 308.298C1025.52 287.393 1011.06 272.763 1007.09 246.342C1000.37 201.573 1032.25 175.641 1072.57 169.371ZM1141 427.194C1126.83 415.669 1103.55 385.529 1090.27 371.293C1082.25 362.71 1055.81 324.809 1046.31 320.06C1034.25 321.439 998.365 351.765 996.423 364.486C987.531 381.482 987.976 406.281 996.684 423.249C996.817 424.742 1000.81 430.734 1001.78 432.085C1024.19 463.222 1064.04 467.98 1097.78 454.683C1115.57 447.67 1125.66 438.403 1141 427.194ZM1069.3 288.851C1084.1 282.337 1101.49 264.432 1110.66 250.788C1123.06 232.338 1124.12 199.842 1102.58 187.113C1083.24 175.682 1056.4 182.921 1044.69 202.713C1036.24 217.648 1037.01 231.34 1044.41 246.414C1046.27 256.567 1063.17 279.862 1069.3 288.851Z"/><path fill="white" fill-opacity="0.011764706" transform="scale(0.999233 1)" d="M996.423 364.486C997.444 367.877 997.784 419.583 996.684 423.249C987.976 406.281 987.531 381.482 996.423 364.486Z"/><path fill="white" fill-opacity="0.011764706" transform="scale(0.999233 1)" d="M1044.69 202.713C1045.69 207.616 1045.78 241.977 1044.41 246.414C1037.01 231.34 1036.24 217.648 1044.69 202.713Z"/><path transform="scale(0.999233 1)" d="M3570.51 250.718C3635.12 245.784 3691.51 294.151 3696.47 358.765C3701.43 423.378 3653.09 479.787 3588.48 484.777C3523.83 489.77 3467.38 441.392 3462.41 376.738C3457.45 312.084 3505.85 255.654 3570.51 250.718ZM3585.11 467.211C3620.18 464.022 3643.56 437.843 3650.66 404.372C3662.23 349.86 3650.89 264.729 3576.51 269.319C3556.57 271.628 3538.44 276.926 3525.48 293.586C3505.7 319.007 3502.37 356.293 3505.37 387.098C3509.97 434.202 3534.19 467.583 3585.11 467.211Z"/><path transform="scale(0.999233 1)" d="M1779.5 255.33C1784.03 254.542 1788.81 254.699 1793.49 254.544C1837.39 253.09 1876.83 275.859 1887.05 320.585C1890.78 336.925 1890.93 349.365 1890.69 366.356C1879.12 367.033 1849.5 365.285 1836.12 365.215C1798.06 365.133 1760.01 365.62 1721.97 366.675C1716.78 444.279 1779.7 483.431 1848.48 453.992C1859.67 449.27 1871.92 437.863 1881.23 429.733C1880.81 437.196 1879.59 446.531 1878.96 454.296C1836.83 489.867 1760.79 491.229 1717.66 457.069C1672.19 421.059 1668.37 337.363 1703.69 293.034C1722.32 269.643 1750.6 258.531 1779.5 255.33ZM1722.76 348.295C1745.48 349.031 1768.21 349.292 1790.94 349.076C1809.5 349.176 1833.83 349.752 1852.07 347.133C1852.22 330.258 1847.59 312.681 1840.79 297.306C1831.83 277.057 1811.89 270.558 1791.13 270.427C1789.67 270.418 1788.21 270.44 1786.74 270.492C1741.79 273.883 1727.32 308.75 1722.76 348.295Z"/><path transform="scale(0.999233 1)" d="M344.275 280.098C383.911 245.734 484.248 239.881 497.355 305.694C506.91 335.161 488.319 442.989 506.225 459.217C512.884 461.623 527.021 459.442 528.685 465.893C525.219 473.512 495.149 478.711 486.924 476.127C472.583 471.62 469.4 463.593 462.297 451.954C458.961 452.749 446.439 462.483 442.514 464.866C417.217 480.223 389.2 487.938 360.372 477.525C345.694 472.223 334.265 464.579 327.504 449.362C318.121 428.243 320.424 395.188 341.081 380.967C378.773 356.575 422.36 363.471 463.904 343.838C463.94 310.738 459.945 281.182 420.992 273.901C404.428 270.805 379.992 274.921 366.521 285.63C358.681 291.862 353.285 299.354 344.52 305.465L344.275 280.098ZM376.671 452.964C391.514 461.345 405.925 464.054 422.797 459.619C436.082 456.127 460.657 441.448 462.002 425.962C463.667 406.795 463.537 385.701 462.825 366.481C462.736 364.611 461.339 363.979 460.099 363.13L456.516 363.231C421.599 369.633 351.752 377.129 361.58 428.02C363.391 437.401 368.809 447.322 376.671 452.964Z"/><path transform="scale(0.999233 1)" d="M3138.38 279.466C3168.69 259.687 3204.6 249.816 3240.85 256.736C3257.56 259.925 3273.45 269.466 3282.68 284.081C3299.23 310.712 3293.07 343.759 3292.31 373.308C3292 389.976 3291.85 406.509 3291.93 423.193C3291.99 438.99 3288.84 457.736 3309.49 461.029C3312.1 461.445 3319.04 462.51 3320.79 464.395C3320.87 474.218 3298.44 476.224 3291.12 476.047C3270.37 475.547 3260.96 469.426 3256.16 449.517C3230.33 470.144 3206.48 484.881 3172.19 481.811C3136.93 478.654 3111.12 448.72 3116.52 413.481C3125.46 355.161 3208.99 366.176 3250.15 347.246C3252.89 346.248 3253.34 346.025 3255.55 344.153C3260.34 333.598 3254.98 310.36 3251.27 299.677C3245.99 288.579 3238.86 281.167 3226.97 277.571C3187.65 265.687 3163.4 278.349 3139.54 307.74C3139.1 300.865 3137.77 285.676 3138.38 279.466ZM3171.45 453.125C3204.03 470.704 3234.94 459.802 3255.89 430.837C3256.1 420.546 3257.95 370.95 3255.46 364.281C3254.37 363.642 3253.76 363.112 3252.51 363.167C3217.16 369.777 3145.89 376.187 3156.37 427.978C3158.47 438.345 3163.15 446.522 3171.45 453.125Z"/><path transform="scale(0.999233 1)" d="M1956.52 278.791C1966.59 274.603 1976.26 268.329 1986.43 264.121C2026.97 247.331 2092.13 249.196 2108.37 298.78C2108.91 300.41 2109.28 302.374 2110.5 303.553C2112.87 316.494 2112.2 331.761 2112.1 345.093C2111.99 365.124 2111.65 385.153 2111.08 405.175C2110.75 418.695 2108.77 448.15 2118.15 458.382C2124.16 464.391 2132.1 460.073 2139.15 462.857C2140.09 467.883 2137.25 470.711 2132.54 472.076C2107.35 479.385 2084.22 479.057 2075.46 450.433C2044.55 471.469 2019.08 489.617 1978.96 479.357C1945.94 470.911 1928.56 439.205 1937.31 406.608C1948.52 364.853 2005.11 363.114 2039.19 356.812C2052.24 354.4 2064.61 350.244 2076.33 343.784C2076.76 324.71 2078.59 306.143 2064.39 290.53C2044.48 268.64 1998.61 270.741 1976.52 288.286C1971.29 292.437 1965.73 303.667 1958.5 303.393L1957.72 301.279C1956.91 294.586 1956.78 285.698 1956.52 278.791ZM1988.5 452.21C2019.97 472.461 2055.01 458.676 2075.71 430.842C2076.02 420.628 2078.14 368.906 2075.43 363.631C2074.88 363.548 2072.91 363.206 2072.5 363.26C2045.11 367.789 1998.51 372.679 1981.23 396.645C1974.91 405.242 1972.33 416.033 1974.09 426.559C1975.93 437.552 1980.97 444.476 1988.5 452.21Z"/><path transform="scale(0.999233 1)" d="M68.6776 133.356C83.6556 134.345 95.6432 134.2 110.566 133.207C106.685 141.584 105.628 280.137 107.926 293.96L109.123 294.48C112.709 291.517 115.411 286.843 117.973 282.891C127.492 274.406 134.392 268.502 145.925 263.004C176.333 248.508 220.425 251.875 243.787 278.053C251.677 286.89 257.201 297.581 259.844 309.129C264.751 330.96 261.99 352.598 261.755 374.531C261.393 408.343 259.723 442.566 264.775 476.074C247.006 474.354 242.221 474.203 224.752 476.31C225.26 436.48 227.569 397.631 227.059 357.311C228.078 347.663 226.862 324.973 224.015 315.97C206.761 261.42 138 266.199 112.144 310.729C105.628 335.37 108.228 341.251 106.514 365.751C104.936 391.114 105.245 409.604 107.391 435.078C108.5 448.233 107.137 462.424 109.066 476.349C94.3428 474.608 83.8958 474.528 69.0214 476.346C68.8907 447.512 69.3166 418.678 70.2989 389.86C70.9565 370.212 72.5818 340.307 71.1287 321.073C73.0666 299.313 71.5634 267.883 71.5913 245.588C71.6388 207.779 71.7057 171.043 68.6776 133.356Z"/><path transform="scale(0.999233 1)" d="M2341.04 258.833C2349.09 259.221 2374.47 259.8 2381.75 258.129C2376.88 275.568 2376.41 463.315 2382.29 476.767C2368.86 474.046 2356.61 476.382 2343.56 474.775C2339.18 469.621 2345.15 448.138 2342.94 441.53C2341.06 441.576 2326.55 459.082 2322.1 462.435C2290.32 486.408 2243.21 489.441 2211.02 464.283C2181.53 441.229 2186.97 398.148 2187.33 364.56C2187.71 329.187 2189.07 295.024 2185.75 259.313C2199.18 260.065 2212.65 259.968 2226.08 259.023C2226.2 271.082 2224.91 286.155 2224.5 298.604C2223.75 323.719 2223.38 348.843 2223.4 373.969C2223.43 388.037 2222.67 403.387 2225.75 417.095C2232.69 447.922 2265.09 463.572 2294.59 456.205C2311.61 451.81 2326.2 440.865 2335.19 425.754C2344.95 391.336 2340.76 354.33 2341.36 318.878C2341.69 299.319 2339.16 278.237 2341.04 258.833Z"/><path transform="scale(0.999233 1)" d="M3797.46 287.919C3803.82 279.882 3807.73 275.241 3816.59 269.641C3848.29 249.617 3892.14 247.418 3922.52 271.211C3938.73 283.91 3942.09 296.106 3946.85 314.602C3948.53 344.953 3941.83 456.549 3948.76 475.709C3934.63 476.369 3922.99 474.839 3906.16 476.077C3907.71 469.589 3908.09 440.031 3908.46 431.902C3909.18 416.337 3910.83 397.741 3910.81 382.371C3910.92 377.387 3910.98 372.403 3911.01 367.418C3911.17 344.293 3912.57 309.833 3895.1 292.323C3884.67 281.864 3868.52 277.326 3854.06 277.394C3838.75 277.466 3821.07 282.537 3810.23 293.679C3804.42 299.646 3799.77 306.989 3797.28 314.955C3786.06 350.845 3792.59 435.297 3793.01 475.797C3777.53 474.486 3767.21 474.631 3751.76 476.1C3757.78 433.559 3755.6 384.7 3756.03 341.42C3756.12 332.949 3755.94 304.554 3754.26 297.354C3752.95 284.049 3752.83 270.709 3751.38 257.326C3766.95 259.154 3776.14 259.347 3791.76 257.483C3791.19 266.122 3789.54 282.661 3791.66 290.288L3793.13 291.943C3795.98 291.143 3795.5 290.805 3797.46 287.919Z"/><path transform="scale(0.999233 1)" d="M3008.86 254.438C3037.41 254.844 3044.75 257.606 3072.29 265.77C3065.67 274.673 3062.61 293.135 3055.65 298.464C3055.11 298.446 3054.46 298.425 3053.7 298.4C3049.58 292.609 3043.38 282.863 3038.25 278.431C3029.43 270.828 3014.03 268.38 3002.86 269.383C2990.2 270.521 2977.19 275.115 2968.89 285.131C2963.09 292.12 2959.95 300.843 2960.79 309.845C2964.02 344.547 3008.23 347.999 3034.02 356.583C3042.73 359.485 3052.59 364.866 3059.65 370.746C3070.15 379.5 3076.15 390.627 3077.27 404.291C3078.7 421.303 3073.39 438.197 3062.49 451.329C3046.72 469.997 3019.08 479.78 2995.26 481.797C2967.09 482.61 2953.18 479.162 2927.74 466.722C2928.9 461.212 2934.86 439.198 2938.17 435.16C2944.19 435.346 2955.65 449.28 2960.88 453.484C2989.53 476.522 3048.53 466.071 3044.16 421.061C3042.51 404.055 3032.78 396.398 3017.91 390.047C2984.36 375.725 2932.58 373.72 2930.2 326.593C2927.04 274.712 2964.49 257.904 3008.86 254.438Z"/><path transform="scale(0.999233 1)" d="M3364.29 133.668C3370.64 134.511 3405.42 134.885 3405.8 135.119L3406.02 135.614C3403.69 150.161 3403.86 175.554 3403.69 191.043C3403.44 224.656 3403.38 258.271 3403.5 291.884C3403.51 334.287 3402.29 376.68 3403.75 419.091C3404.3 435.112 3403.91 458.905 3405.62 474.265C3402.91 475.722 3373.08 475.458 3365.01 476.359C3364.46 458.442 3365.92 435.352 3366.56 417.108C3367.66 402.23 3367.08 382.566 3367.18 367.228L3367.51 274.659C3367.44 260.017 3368.35 213.599 3366.28 201.349C3365.58 179.283 3365.74 155.492 3364.29 133.668Z"/><path transform="scale(0.999233 1)" d="M2454.17 214.876C2461.75 213.109 2488.35 200.529 2492.29 202.232C2495.79 209.076 2491.5 253.327 2490.79 264.71C2503.16 265.382 2529.32 263.685 2540.04 265.497C2543.79 268.889 2541.65 274.351 2544.06 282.963C2528.58 283.226 2513.11 283.197 2497.63 282.878C2495.8 283.165 2493.27 283.147 2492.71 284.536C2489.97 291.264 2490.59 309.219 2490.72 316.335C2489.51 342.868 2489.17 370.393 2489.52 397.049C2489.85 421.219 2488.45 464.851 2521.85 466.142C2529.51 466.438 2542.44 463.743 2547.99 468.325C2549.34 471.553 2549.29 470.233 2548.11 473.61C2542.85 478.976 2518.2 481.638 2510.13 481.688C2481.2 481.867 2461.02 468.646 2454.25 440.124C2450.86 429.18 2453.87 398.032 2454.58 385.811C2456.16 351.772 2456.27 317.681 2454.9 283.633C2447.36 282.76 2432.37 283.13 2424.27 283.104L2424.16 266.023C2433.24 265.349 2446.62 265.658 2456.23 265.432C2455.68 249.427 2455.62 230.532 2454.17 214.876Z"/><path transform="scale(0.999233 1)" d="M714.007 257.757C713.431 265.441 713.489 289.613 715.558 297.882C715.788 298.801 716.718 298.798 717.655 299.013C722.582 295.037 728.711 279.783 739.835 270.805C754.259 259.163 762.832 254.739 782.662 254.811C787.499 254.828 790.055 256.337 792.949 259.584C792.178 274.09 790.126 281.024 791.528 296.086C787.412 294.233 782.401 291.806 778.155 290.624C756.907 284.711 730.556 291.475 721.667 313.442C721.281 314.396 720.562 315.705 720.512 316.696C708.932 353.125 715.245 411.878 715.17 450.626C715.159 456.296 715.966 471.722 716.959 476.684C706.245 473.961 687.863 475.203 677.049 475.852C678.357 435.032 680.476 396.598 679.677 355.279C679.043 322.479 676.825 290.984 676.473 258.301C691.919 259.688 698.478 259.394 714.007 257.757Z"/><path transform="scale(0.999233 1)" d="M571.525 259.64C581.816 260.06 602.398 261.211 611.764 258.932C610.858 283.548 611.061 308.778 609.395 333.141C608.76 357.726 607.307 397.765 609.968 421.381C609.55 431.69 613.173 468.571 610.058 474.637C608.652 475.192 607.751 475.653 606.229 475.764C594.345 474.151 583.251 474.821 571.393 476.337C572.801 465.176 572.703 445.925 573.173 434.094C575.48 376.139 573.685 317.582 571.525 259.64Z"/><path fill="white" fill-opacity="0.011764706" transform="scale(0.999233 1)" d="M3406.02 135.614L3407.99 134.667C3410.66 137.577 3409.44 161.785 3409.44 167.49L3409.47 230.424C3409.5 302.412 3408.54 374.383 3409.42 446.361C3409.5 452.284 3410.23 469.831 3409.01 474.391L3407.6 475.305L3405.62 474.265C3403.91 458.905 3404.3 435.112 3403.75 419.091C3402.29 376.68 3403.51 334.287 3403.5 291.884C3403.38 258.271 3403.44 224.656 3403.69 191.043C3403.86 175.554 3403.69 150.161 3406.02 135.614Z"/><path transform="scale(0.999233 1)" d="M587.552 158.822C596.946 157.675 606.102 162.316 610.73 170.571C614.514 177.321 614.705 185.508 611.239 192.428C607.774 199.347 601.102 204.097 593.43 205.109C580.613 206.799 568.865 197.744 567.237 184.919C565.608 172.093 574.719 160.389 587.552 158.822Z"/><path fill="white" fill-opacity="0.011764706" transform="scale(0.999233 1)" d="M571.393 476.337C567.974 476.492 568.206 477.046 565.915 475.464C565.21 470.512 566.141 408.305 567.006 401.958C570.194 378.566 561.943 270.874 566.444 259.298C569.154 258.134 568.108 258.318 571.525 259.64C573.685 317.582 575.48 376.139 573.173 434.094C572.703 445.925 572.801 465.176 571.393 476.337Z"/><path fill="white" fill-opacity="0.015686275" transform="scale(0.999233 1)" d="M2335.19 425.754C2335.03 425.446 2334.87 425.138 2334.7 424.829C2332.53 416.59 2333.87 403.138 2334.27 394.69C2335.35 372.204 2335.31 350.451 2334.9 327.997C2334.84 317.494 2333.06 266.051 2334.67 259.902C2337.31 258.073 2337.38 258.681 2341.04 258.833C2339.16 278.237 2341.69 299.319 2341.36 318.878C2340.76 354.33 2344.95 391.336 2335.19 425.754Z"/><path fill="white" fill-opacity="0.011764706" transform="scale(0.999233 1)" d="M110.566 133.207C111.306 133.358 113.274 133.511 113.67 134.087C116.053 137.558 112.408 228.451 112.286 240.379C112.142 254.389 113.207 268.222 112.448 282.273C114.705 282.733 115.667 282.803 117.973 282.891C115.411 286.843 112.709 291.517 109.123 294.48L107.926 293.96C105.628 280.137 106.685 141.584 110.566 133.207Z"/><path fill="white" fill-opacity="0.011764706" transform="scale(0.999233 1)" d="M2381.75 258.129L2384.32 258.79C2386.58 262.684 2385.47 315.845 2384.53 323.13C2381.67 343.444 2379.7 362.455 2380.46 383.015C2381.07 399.347 2376.34 411.198 2382.01 427.408C2383.96 432.981 2387.46 472.406 2384.49 476.265L2382.29 476.767C2376.41 463.315 2376.88 275.568 2381.75 258.129Z"/><path fill="white" fill-opacity="0.011764706" transform="scale(0.999233 1)" d="M2110.5 303.553C2112.9 304.727 2116.97 306.507 2117.45 309.432C2118.74 317.547 2118.59 326.509 2118.41 334.759C2117.85 359.305 2118.99 384.529 2116.68 408.975C2115.13 425.477 2119.96 442.446 2118.15 458.382C2108.77 448.15 2110.75 418.695 2111.08 405.175C2111.65 385.153 2111.99 365.124 2112.1 345.093C2112.2 331.761 2112.87 316.494 2110.5 303.553Z"/><path fill="white" fill-opacity="0.015686275" transform="scale(0.999233 1)" d="M497.355 305.694C507.27 308.505 505.842 318.331 505.969 327.514C506.332 353.671 504.458 379.933 504.7 406.104C504.493 419.862 507.273 447.84 506.225 459.217C488.319 442.989 506.91 335.161 497.355 305.694Z"/><path fill="white" fill-opacity="0.011764706" transform="scale(0.999233 1)" d="M69.0214 476.346C66.4465 476.491 65.9151 476.563 63.6962 475.328C58.1365 464.416 64.6738 359.009 70.1291 342.28C71.9929 336.565 66.4307 327.101 71.1287 321.073C72.5818 340.307 70.9565 370.212 70.2989 389.86C69.3166 418.678 68.8907 447.512 69.0214 476.346Z"/><path fill="white" fill-opacity="0.011764706" transform="scale(0.999233 1)" d="M720.512 316.696C726.031 336.774 716.998 379.059 717.519 401.157C717.788 412.551 724.522 471.699 719.988 476.382L716.959 476.684C715.966 471.722 715.159 456.296 715.17 450.626C715.245 411.878 708.932 353.125 720.512 316.696Z"/><path fill="white" fill-opacity="0.0078431377" transform="scale(0.999233 1)" d="M3946.85 314.602C3948.2 317.773 3953.26 324.134 3953.3 325.961C3954.09 358.555 3952.7 391.876 3949.63 424.302C3948.47 436.666 3951.39 465.407 3948.76 475.709C3941.83 456.549 3948.53 344.953 3946.85 314.602Z"/><path fill="white" fill-opacity="0.0078431377" transform="scale(0.999233 1)" d="M224.752 476.31C221.233 476.445 221.279 477.004 218.669 475.288C217.07 453.167 220.578 430.3 221.251 408.319C221.903 387.013 219.952 378.244 227.059 357.311C227.569 397.631 225.26 436.48 224.752 476.31Z"/><path fill="white" fill-opacity="0.011764706" transform="scale(0.999233 1)" d="M3906.16 476.077L3903.68 475.246C3900.36 468.893 3903.17 416.716 3903.45 406.822C3903.57 402.549 3909 387.063 3910.81 382.371C3910.83 397.741 3909.18 416.337 3908.46 431.902C3908.09 440.031 3907.71 469.589 3906.16 476.077Z"/><path fill="white" fill-opacity="0.011764706" transform="scale(0.999233 1)" d="M611.764 258.932C615.335 258.615 615.267 258.013 617.748 259.764C618.086 273.05 618.016 323.063 611.376 332.907C610.774 333.015 609.949 333.236 609.395 333.141C611.061 308.778 610.858 283.548 611.764 258.932Z"/><path fill="white" fill-opacity="0.011764706" transform="scale(0.999233 1)" d="M3366.28 201.349C3357.47 196.323 3356.79 136.665 3359.47 133.707L3364.29 133.668C3365.74 155.492 3365.58 179.283 3366.28 201.349Z"/><path fill="white" fill-opacity="0.011764706" transform="scale(0.999233 1)" d="M112.144 310.729C117.875 319.38 112.912 361.737 110.712 372.616C110.045 375.915 109.485 379.188 107.903 382.195C105.696 379.814 106.424 369.512 106.514 365.751C108.228 341.251 105.628 335.37 112.144 310.729Z"/><path fill="white" fill-opacity="0.011764706" transform="scale(0.999233 1)" d="M3365.01 476.359C3364.06 476.494 3361.96 476.002 3360.92 475.808C3354.85 469.672 3361.84 432.901 3361.96 423.093C3362.01 419.482 3363.63 418.244 3366.56 417.108C3365.92 435.352 3364.46 458.442 3365.01 476.359Z"/><path fill="white" fill-opacity="0.011764706" transform="scale(0.999233 1)" d="M2454.25 440.124C2452.82 439.873 2451.52 439.301 2450.16 438.779C2442.16 430.16 2448.1 389.212 2453.55 380.773C2454.69 381.941 2454.44 383.856 2454.58 385.811C2453.87 398.032 2450.86 429.18 2454.25 440.124Z"/><path fill="white" fill-opacity="0.011764706" transform="scale(0.999233 1)" d="M609.968 421.381C614.479 426.619 621.307 469.839 614.635 475.969C612.449 476.956 608.205 477.091 606.229 475.764C607.751 475.653 608.652 475.192 610.058 474.637C613.173 468.571 609.55 431.69 609.968 421.381Z"/><path fill="white" fill-opacity="0.011764706" transform="scale(0.999233 1)" d="M3754.26 297.354L3751.04 295.726C3746.66 288.652 3742.72 263.925 3747.28 257.875L3751.38 257.326C3752.83 270.709 3752.95 284.049 3754.26 297.354Z"/><path fill="white" fill-opacity="0.015686275" transform="scale(0.999233 1)" d="M3250.15 347.246C3252.63 333.902 3248.55 313.856 3251.27 299.677C3254.98 310.36 3260.34 333.598 3255.55 344.153C3253.34 346.025 3252.89 346.248 3250.15 347.246Z"/><path fill="white" fill-opacity="0.011764706" transform="scale(0.999233 1)" d="M792.949 259.584C796.571 260.897 797.371 261.03 797.435 265.532C797.502 270.341 797.983 294.587 795.699 297.163L793.033 297.529L791.528 296.086C790.126 281.024 792.178 274.09 792.949 259.584Z"/><path fill="white" fill-opacity="0.011764706" transform="scale(0.999233 1)" d="M3791.76 257.483C3795 257.748 3796.17 256.883 3797.32 260.396C3799.74 267.835 3793.12 280.744 3795.25 286.899L3797.46 287.919C3795.5 290.805 3795.98 291.143 3793.13 291.943L3791.66 290.288C3789.54 282.661 3791.19 266.122 3791.76 257.483Z"/><path fill="white" fill-opacity="0.011764706" transform="scale(0.999233 1)" d="M2490.72 316.335C2490.59 309.219 2489.97 291.264 2492.71 284.536C2493.27 283.147 2495.8 283.165 2497.63 282.878C2497.7 291.629 2496.07 309.366 2490.72 316.335Z"/><path fill="white" fill-opacity="0.011764706" transform="scale(0.999233 1)" d="M1957.72 301.279C1957.4 303.885 1957.85 303.184 1956.24 304.949C1950.47 302.889 1949.53 285.431 1950.91 279.98C1953.12 278.028 1952.89 278.659 1956.52 278.791C1956.78 285.698 1956.91 294.586 1957.72 301.279Z"/><path fill="white" fill-opacity="0.0078431377" transform="scale(0.999233 1)" d="M1455.67 132.596L1459.51 132.687C1464.42 138.639 1458.38 154.147 1453.96 158.582C1454.24 149.82 1454.97 141.333 1455.67 132.596Z"/><path transform="scale(0.999233 1)" d="M2566.19 258.711C2623.73 263.293 2602.26 246.49 2622.59 297.051C2629.17 313.406 2673.9 421.637 2680.24 426.677L2682.16 426.531C2695.26 410.25 2745.57 283.864 2753.43 258.853C2759.09 259.005 2778.34 259.061 2783.11 260.101C2783.78 264.151 2769.71 288.28 2766.98 294.037L2729.51 371.352C2698.31 436.544 2662.87 505.461 2637.93 573L2605.51 573C2622.71 545.157 2648.55 503.732 2660.01 473.985C2651.24 451.276 2641.53 429.647 2631.11 407.641C2626.92 398.815 2623.89 388.986 2619.99 379.947L2585.97 302.614C2579.85 288.463 2571.86 272.673 2566.19 258.711Z"/></svg>