<?xml version="1.0" encoding="utf-8" ?><svg xmlns="http://www.w3.org/2000/svg" xmlns:xlink="http://www.w3.org/1999/xlink" width="4096" height="4096" viewBox="0 0 4096 4096"><path fill="#1E1311" d="M1738.74 1765.05C1737.6 1806.05 1739.46 1848.76 1735.44 1889.2C1726.21 1975.28 1686.64 2055.26 1623.82 2114.82C1552.52 2181.12 1457.7 2216.2 1360.42 2212.27C1159.37 2205.25 1009.42 2045.06 1006.1 1847.34C1005.57 1815.46 1006.44 1783.89 1007.15 1752.02C1000.94 1609.7 1012.93 1491.48 1125.84 1387.66C1198.75 1321.27 1295.13 1286.73 1393.61 1291.69C1489.63 1295.93 1565.83 1337.75 1636.05 1400.86C1639.41 1403.87 1637.51 1408.26 1636.61 1411.62C1631.3 1415.76 1634.21 1414.81 1627.7 1414.84C1611.88 1402.98 1599.57 1386.29 1583.77 1374.95C1519.26 1328.64 1443.63 1306.78 1364.99 1317.41C1240.19 1334.29 1154.38 1419.16 1108.45 1533.01C1081.25 1600.44 1086.12 1670.02 1085.47 1741.14C1084.83 1796.21 1082.46 1850.66 1091.13 1905.51C1105.95 1996.84 1156.16 2078.65 1230.88 2133.21C1347.76 2217.88 1509.89 2207.12 1593.17 2085.4C1651.52 2000.1 1668.49 1871.75 1659.83 1771.53C1658.59 1770.9 1648.39 1767.83 1646.28 1767.13C1656.39 1764.3 1718.63 1767.77 1738.74 1765.05Z"/><path fill="#1E1311" d="M2315.31 1882.48C2310.6 1863.41 2311.06 1845.98 2303.94 1821.46C2289.24 1768.96 2253.77 1724.74 2205.72 1699C2164.09 1677.12 2105.05 1675.58 2060.36 1689.23C2002.78 1706.2 1954.54 1745.79 1926.68 1798.96C1891.54 1866.51 1891.14 1973.77 1912.8 2045.37C1961.56 2206.5 2181.33 2247.64 2295.99 2130.76C2302.27 2124.36 2310.6 2114.74 2318.93 2112.01L2322.42 2113.96C2322.77 2118.04 2323.42 2118.43 2319.78 2122.62C2278.38 2170.2 2215.25 2201.18 2154.16 2209.49C2077.5 2219.65 1996.17 2204.23 1934.52 2156.63C1860.43 2099.42 1841.37 2038.43 1843.39 1948.74C1841.36 1881.06 1842.56 1826.46 1885.4 1769.45C1974.62 1650.72 2164.31 1631.91 2281.73 1719.06C2330.44 1755.21 2362.13 1810.41 2369.99 1871.24C2369.33 1881.22 2368.82 1889.22 2369.02 1899.31C2358.99 1899.35 2319.84 1901.51 2313.2 1900.35C2313.93 1894.97 2314.44 1894.78 2317.02 1889.88C2316.59 1886.87 2316.74 1884.6 2315.31 1882.48Z"/><path fill="#1E1311" d="M2760.36 2212.15C2692.19 2212.84 2627.44 2201.39 2572.34 2161.5C2492.66 2103.82 2473.57 2033.59 2476.3 1940.12C2478.28 1872.61 2474.76 1824.78 2519.56 1767.1C2610.69 1648.96 2799.76 1631.35 2916.68 1720.83C2974.45 1765.04 2998.33 1824.81 3006.9 1894.63C3000.9 1901.47 2957.68 1901.16 2950.16 1897.75C2950.83 1890.26 2952.19 1886.09 2948.68 1880.57C2945.76 1862.55 2943.23 1844.26 2938.52 1826.63C2911.2 1724.39 2821.84 1665.83 2717.76 1683.68C2659.05 1694.25 2606.93 1727.69 2572.85 1776.66C2533.19 1833.3 2534.98 1873.69 2533.36 1938.4C2531.02 2031.57 2549.96 2101.42 2629.7 2157.57C2670.43 2186.26 2714.21 2196.57 2764.35 2197.76C2758.89 2205.98 2762.17 2204.38 2760.36 2212.15Z"/><path fill="#1E1311" fill-opacity="0.93725491" d="M2800.97 2480.91C2816.86 2479.01 2832.41 2486.5 2840.84 2500.1C2844.21 2505.53 2846.27 2511.67 2846.85 2518.04C2848.87 2540.14 2833 2559.87 2810.97 2562.64C2788.37 2565.47 2767.76 2549.41 2764.99 2526.79C2762.22 2504.17 2778.35 2483.61 2800.97 2480.91ZM2813.92 2553.63C2844.5 2531.14 2837.93 2488.32 2801.36 2488.53C2767.27 2503.74 2772.92 2558.77 2813.92 2553.63Z"/><path fill="#1E1311" fill-opacity="0.96470588" d="M1745.19 2435.84L1752.79 2438.42C1759.09 2446.6 1756.69 2480.95 1756.8 2493.79C1819.13 2446.4 1849.82 2557 1775.87 2560.37L1774.09 2558.61C1784.85 2548.11 1790.72 2557.93 1802.66 2533.04C1807.26 2497.88 1783.97 2472.68 1756.19 2509.27L1756.28 2536.16C1759.77 2541.69 1763.32 2545.86 1763.85 2552.22C1757.99 2556.81 1750.47 2556.19 1741.95 2557.18C1741.11 2541.18 1737.44 2446.18 1745.19 2435.84Z"/><path fill="#1E1311" fill-opacity="0.96470588" d="M1178.47 2483.12C1248.7 2479.47 1199.13 2520.33 1224.98 2558.12C1222.06 2561.7 1223.93 2560.21 1217.83 2561.02C1195.39 2547.7 1195.09 2563.15 1164.48 2558.42C1130.8 2524.93 1200.4 2521.85 1206.56 2502.54C1200.52 2487.61 1182.36 2493.29 1168.19 2493.38L1167.55 2490.8C1172.87 2484.05 1169.64 2486.87 1178.47 2483.12ZM1181.43 2551.08C1189.01 2550.08 1197.6 2550.31 1202.23 2543.4C1207.46 2535.6 1209.07 2527.7 1200.94 2521.2L1195.08 2521.49C1184.92 2525.09 1176.28 2528.97 1171.23 2538.84C1171.72 2547.57 1172.81 2547.41 1181.43 2551.08Z"/><path fill="#1E1311" fill-opacity="0.98431373" d="M1047.02 2436.51L1054.03 2438.71C1061.65 2446.82 1058.77 2475.91 1058.69 2488.62C1060.19 2487.69 1061.69 2486.79 1063.21 2485.91C1085.25 2473.25 1097.27 2480.84 1108.85 2501.08C1109.17 2516.16 1112.54 2552.18 1099.9 2560.98C1090.96 2550.23 1095.06 2525.88 1096.57 2512.79C1095.55 2503.71 1094.74 2499.19 1088.14 2492.97C1039.99 2475.5 1068.36 2539.26 1052.79 2561.87L1050.41 2560.41C1043.35 2544.29 1042.94 2452.75 1047.02 2436.51Z"/><path fill="#1E1311" fill-opacity="0.9254902" d="M2369.99 1871.24C2371.78 1882.47 2373.26 1893.76 2374.45 1905.07L2223.99 1904.81C2190.72 1904.61 2148.62 1905.71 2116.53 1899.99C2154.48 1886.7 2304.98 1896.13 2313.85 1889.95L2315.31 1882.48C2316.74 1884.6 2316.59 1886.87 2317.02 1889.88C2314.44 1894.78 2313.93 1894.97 2313.2 1900.35C2319.84 1901.51 2358.99 1899.35 2369.02 1899.31C2368.82 1889.22 2369.33 1881.22 2369.99 1871.24Z"/><path fill="#1E1311" fill-opacity="0.9254902" d="M2764.35 2197.76C2827.6 2193.29 2878.36 2178.19 2923.86 2133.73C2929.62 2128.11 2947.74 2109.94 2954.32 2109.08L2956.67 2112.02C2954.92 2123.62 2921.59 2151.95 2910.78 2159.95C2866.88 2191.79 2814.55 2209.95 2760.36 2212.15C2762.17 2204.38 2758.89 2205.98 2764.35 2197.76Z"/><path fill="#1E1311" fill-opacity="0.96078432" d="M1549.79 2451.95L1554.16 2455.34C1544.08 2479.97 1548.38 2480.57 1559.78 2498.93L1561.67 2499.04C1568.33 2506.52 1571.45 2509.81 1576.82 2518.36C1579.24 2525.64 1580.12 2530.63 1585.43 2536.12C1590.36 2537.93 1589.87 2538.46 1594.71 2538.4C1598.28 2547.97 1603.8 2547.31 1607.38 2557.77L1605.83 2560.15C1594.34 2559.67 1593.48 2557.86 1584.48 2549.8C1581.04 2549.05 1582.63 2549.3 1578.64 2548.91L1575.62 2548.64L1575.27 2544.35C1569.93 2530.57 1558.35 2517.65 1548.7 2506.45C1523.5 2529.76 1522.1 2555.11 1562.55 2552.7C1554.38 2555.85 1547.76 2556.98 1540.9 2561.83C1504.55 2546.03 1512.97 2517.52 1543.05 2500.6C1535.72 2480.05 1528.73 2466.09 1549.79 2451.95Z"/><path fill="#160D0E" fill-opacity="0.9137255" d="M2948.68 1880.57C2952.19 1886.09 2950.83 1890.26 2950.16 1897.75C2957.68 1901.16 3000.9 1901.47 3006.9 1894.63C3007.32 1899.91 3007.53 1897.29 3005.06 1902.42C2994.93 1906.24 2893.47 1903.95 2874.73 1904.3C2848.3 1904.81 2779.47 1907.24 2757.69 1900.24L2757.68 1898.08L2758.78 1897.62L2758.74 1900.1C2769.23 1884.63 2930.27 1900.25 2947.09 1889.84L2948.68 1880.57Z"/><path fill="#1E1311" d="M2095.84 2480.97C2124.81 2490.99 2089.79 2553.91 2126.37 2553.52C2151.81 2553.26 2139.72 2499.73 2150.86 2485.09C2156.2 2484.27 2153.51 2484.02 2158.87 2487.38L2160.02 2493.5C2160.02 2510.2 2166.06 2551.69 2151.26 2560.01L2143.88 2556.31L2137.12 2557.4C2099.74 2563.53 2090.43 2549.18 2092.86 2513.1C2093.63 2501.6 2093.29 2492.6 2095.84 2480.97Z"/><path fill="#1E1311" fill-opacity="0.96078432" d="M2923.54 2482.52C2942.23 2481.11 2953.55 2484.86 2959.08 2504.57C2962.96 2518.4 2962.9 2546.17 2955.95 2558.73L2951.32 2558.44C2936.27 2541.59 2959.48 2505.1 2931.63 2489.47C2891.92 2501.12 2917.82 2534.23 2906.72 2555.56C2900.92 2559.59 2903.91 2558.98 2897.81 2558.68C2897.07 2557.74 2895.5 2556.01 2895.52 2554.67C2895.74 2534.81 2892.2 2506.61 2897.84 2488.01C2900.1 2480.58 2909.12 2486.54 2913.46 2486.55C2913.46 2486.55 2923.04 2482.72 2923.54 2482.52Z"/><path fill="#1E1311" fill-opacity="0.97254902" d="M2618.73 2482.35C2659.77 2502.34 2625.28 2529.31 2643.79 2554.09C2642.59 2559.62 2643.78 2557.18 2639.27 2561.05C2628.89 2559.85 2626.89 2552.8 2624.72 2553.07C2610.65 2554.77 2591.19 2567.59 2577.56 2556.54C2567.44 2539.1 2582.79 2528.91 2595.5 2521.27C2594.64 2527.06 2593.65 2526.71 2595.28 2530.98C2589.7 2536.16 2589.57 2538.52 2590 2545.29C2593.76 2549.84 2596.85 2552.62 2602.95 2552.77C2625.28 2553.29 2624.86 2538.07 2623.51 2523.35L2624 2514.72C2626.58 2494.91 2619.38 2492.58 2602.3 2491.22C2608.09 2489.7 2613.44 2485.66 2618.73 2482.35Z"/><path fill="#1E1311" fill-opacity="0.95294118" d="M1911.27 2521.88C1902.4 2522.61 1883.47 2521.32 1877.05 2524.11C1867.87 2557.68 1913.91 2546.32 1927.85 2550.69L1928.46 2553.67C1918.09 2563.35 1906.1 2563.24 1893.09 2559.97C1855.46 2550.52 1852.23 2498.09 1885.13 2481.1C1895.98 2475.5 1915.57 2487.17 1925.67 2491.96L1920.57 2495.46L1919.52 2501.67C1902.67 2476.64 1879.83 2491.3 1875.78 2515.45C1886.35 2523.79 1897.2 2516.55 1911.27 2521.88Z"/><path fill="#1E1311" d="M2697.22 2434.54C2709.97 2437.1 2710.09 2444.23 2710.74 2456.03C2712.57 2489.55 2708.84 2524.74 2711.66 2558.08L2711.91 2560.71C2706.44 2560.55 2700.3 2560.96 2696.77 2556.82C2694.98 2538.87 2695.41 2452.91 2697.22 2434.54Z"/><path fill="#1E1311" fill-opacity="0.96078432" d="M2023.87 2484.27C2047.7 2506.57 2020.55 2532.87 2042.38 2554.81L2042.56 2557.83C2025.31 2559.98 1976.28 2564.11 1972.37 2542.28C1975.86 2532.25 1980.04 2527.66 1988.81 2521.93C1992.92 2524.43 1994.55 2524.88 1997.64 2528.23C1991.43 2532.63 1989.78 2533.11 1987.2 2540.34C1990.02 2558.4 2014.76 2552.94 2020.96 2542.75C2024.52 2525.95 2025.36 2531.32 2019.83 2516.98C2023.48 2508.68 2023.22 2509.09 2022.25 2499.94L2013.06 2490.26C2016.5 2485.74 2017.51 2486.6 2023.87 2484.27Z"/><path fill="#1E1311" fill-opacity="0.94901961" d="M2494.73 2484.26C2502.4 2483.31 2521.49 2480.43 2523.08 2490.9L2520.66 2493.17C2509.08 2491.96 2501.5 2488.79 2493.05 2497.55C2493.22 2517.55 2563.76 2532.01 2516.06 2560.18C2506.99 2560.84 2485.99 2563.77 2481.97 2553.98C2494.44 2548.19 2507.28 2557.84 2518.59 2545.8C2518.59 2524.53 2449.82 2513.1 2494.73 2484.26Z"/><path fill="#1E1311" fill-opacity="0.97647059" d="M2223.94 2464.35C2226.96 2464.91 2228.82 2465.71 2231.73 2466.7C2240.11 2479.38 2231.16 2476.53 2246.65 2490.51L2245.21 2493.23C2239.94 2494.52 2237.55 2494.44 2233.77 2498.18C2231.41 2511.77 2231.17 2533.19 2232.8 2546.98C2235.78 2551.75 2236.07 2551.75 2241.3 2554.17L2251.26 2558.82C2209.87 2573.75 2219.82 2524.94 2220.62 2501.97C2220.82 2496.17 2216.65 2494.96 2212.24 2491.71L2212.48 2488.49L2220.74 2483.35C2222.19 2476.69 2222.99 2471.11 2223.94 2464.35Z"/><path fill="#1E1311" fill-opacity="0.9254902" d="M1659.83 1771.53C1647.79 1773.88 1571.42 1775.18 1565.7 1767.57C1569.22 1763.86 1574.47 1763.06 1582.13 1762.53C1631.92 1759.07 1684.42 1759.63 1734.37 1761.52C1735.83 1762.7 1737.28 1763.87 1738.74 1765.05C1718.63 1767.77 1656.39 1764.3 1646.28 1767.13C1648.39 1767.83 1658.59 1770.9 1659.83 1771.53Z"/><path fill="#1E1311" fill-opacity="0.8392157" d="M1549.79 2451.95C1597.14 2450.11 1589.99 2474.82 1561.67 2499.04L1559.78 2498.93C1548.38 2480.57 1544.08 2479.97 1554.16 2455.34L1549.79 2451.95Z"/><path fill="#1E1311" fill-opacity="0.96862745" d="M2317.97 2551.84C2316.99 2550.71 2316 2549.59 2315.01 2548.46C2310.25 2536.11 2287.19 2495.74 2289.31 2485.81C2307.31 2479.06 2317.82 2526.4 2323.71 2540.38C2326.84 2547.14 2327.91 2549.29 2328.26 2556.68L2327.95 2557.92L2324.28 2559.48C2321.57 2556.62 2320.34 2555.01 2317.97 2551.84Z"/><path fill="#1E1311" fill-opacity="0.98431373" d="M1283.35 2482.42C1288.4 2483.7 1287.68 2483.51 1292.37 2485.62C1297.99 2496.99 1298.38 2551.7 1290.99 2562.05L1285.4 2557.85C1280.34 2543.81 1282.94 2499.28 1283.35 2482.42Z"/><path fill="#1E1311" fill-opacity="0.97254902" d="M1368.06 2501.61C1367.02 2516.21 1372.54 2551.94 1362.01 2558.89L1358.04 2557.73C1354.33 2544.59 1351.8 2495.06 1360.85 2485.46L1363.53 2486.57C1364.98 2491.83 1366.26 2496.42 1368.06 2501.61Z"/><path fill="#1E1311" fill-opacity="0.85882354" d="M2358.44 2475.9C2356.89 2491.14 2336.84 2544.98 2328.26 2556.68C2327.91 2549.29 2326.84 2547.14 2323.71 2540.38C2338.71 2518.04 2336.65 2502.97 2358.44 2475.9Z"/><path fill="#160D0E" fill-opacity="0.84705883" d="M1919.52 2501.67L1920.57 2495.46L1925.67 2491.96C1933.03 2501.42 1938.04 2508.38 1930.1 2519.19C1924.34 2521.97 1917.57 2522.78 1911.27 2521.88C1897.2 2516.55 1886.35 2523.79 1875.78 2515.45C1891.08 2512.74 1901.77 2517.27 1916.57 2512.59C1921.33 2507.3 1919.74 2510.54 1919.52 2501.67Z"/><path fill="#1E1311" fill-opacity="0.80000001" d="M2317.97 2551.84C2320.34 2555.01 2321.57 2556.62 2324.28 2559.48L2327.95 2557.92C2326.54 2568.62 2313.94 2598.71 2301.74 2599.8C2297.6 2587.66 2317.9 2576.95 2317.97 2551.84Z"/><path fill="#160D0E" fill-opacity="0.78823531" d="M2022.25 2499.94C2023.22 2509.09 2023.48 2508.68 2019.83 2516.98C2025.36 2531.32 2024.52 2525.95 2020.96 2542.75C2020.43 2535.07 2021.23 2528.17 2016.17 2523.68C2009.12 2525.1 2004.53 2526.19 1997.64 2528.23C1994.55 2524.88 1992.92 2524.43 1988.81 2521.93C2007.68 2514.45 2014.86 2521.33 2022.25 2499.94Z"/><path fill="#1E1311" fill-opacity="0.81568629" d="M1576.82 2518.36C1580.57 2522.89 1582.6 2524.82 1584.9 2530.34L1587.75 2531.57C1596.22 2526.69 1595.21 2513.89 1603.48 2508.79L1607.27 2510.51C1608.72 2517.04 1605.48 2522.69 1602 2528.36C1599.85 2531.9 1597.41 2535.26 1594.71 2538.4C1589.87 2538.46 1590.36 2537.93 1585.43 2536.12C1580.12 2530.63 1579.24 2525.64 1576.82 2518.36Z"/><path fill="#1E1311" fill-opacity="0.81176472" d="M2013.06 2490.26C2001.79 2490.9 1996.62 2492.65 1985.82 2495.98L1981.9 2493.35C1985.6 2480.12 2013.46 2481.7 2023.87 2484.27C2017.51 2486.6 2016.5 2485.74 2013.06 2490.26Z"/><path fill="#160D0E" fill-opacity="0.80784315" d="M1575.27 2544.35L1575.62 2548.64L1578.64 2548.91C1582.63 2549.3 1581.04 2549.05 1584.48 2549.8C1569.84 2559.4 1559.27 2564.61 1540.9 2561.83C1547.76 2556.98 1554.38 2555.85 1562.55 2552.7L1575.27 2544.35Z"/><path fill="#1E1311" fill-opacity="0.86274511" d="M1363.53 2486.57C1370.7 2490.91 1367.07 2490.4 1374.62 2489.04C1382.71 2482.46 1380.86 2481.82 1389.41 2481.06C1393.22 2486.37 1392.44 2483.49 1391.86 2490C1384.85 2495.57 1376.35 2496.44 1368.06 2501.61C1366.26 2496.42 1364.98 2491.83 1363.53 2486.57Z"/><path fill="#1E1311" fill-opacity="0.84705883" d="M2602.3 2491.22C2593.75 2495.87 2593.95 2497.53 2585.64 2497.35L2584.8 2493.93C2594.43 2481.01 2603.72 2481.5 2618.73 2482.35C2613.44 2485.66 2608.09 2489.7 2602.3 2491.22Z"/><path fill="#1E1311" fill-opacity="0.81568629" d="M2624 2514.72L2623.51 2523.35C2610.05 2525.43 2607.94 2525.99 2595.28 2530.98C2593.65 2526.71 2594.64 2527.06 2595.5 2521.27C2608.05 2516.12 2611.04 2516.02 2624 2514.72Z"/></svg>