<svg width="512" height="512" viewBox="0 0 512 512" fill="none" xmlns="http://www.w3.org/2000/svg">
<rect width="512" height="512" fill="white"/>
<path d="M157.933 110.519C187.054 84.0022 225.549 70.2063 264.884 72.1873C303.236 73.8808 333.672 90.5847 361.719 115.792C363.06 116.994 362.302 118.748 361.942 120.09C359.821 121.743 360.983 121.364 358.383 121.376C352.064 116.639 347.147 109.973 340.837 105.443C315.071 86.9463 284.863 78.2151 253.453 82.4608C203.606 89.2029 169.331 123.101 150.986 168.574C140.122 195.507 142.068 223.298 141.809 251.705C141.553 273.701 140.606 295.448 144.069 317.356C149.989 353.835 170.043 386.511 199.888 408.304C246.571 442.122 311.328 437.824 344.592 389.208C367.898 355.138 374.676 303.872 371.217 263.843C366.408 264.781 335.904 265.301 333.619 262.262C335.025 260.78 337.122 260.46 340.182 260.248C360.068 258.866 381.038 259.09 400.989 259.845L402.734 261.255L402.662 264.333C402.363 279.759 402.921 295.699 401.416 310.842C397.729 345.223 381.924 377.169 356.833 400.958C328.355 427.439 290.483 441.451 251.628 439.882C171.325 437.078 111.433 373.095 110.106 294.123C109.895 281.39 110.243 268.78 110.526 256.051C108.046 199.206 112.835 151.987 157.933 110.519Z" fill="black"/>
</svg>
