<svg width="312" height="200" viewBox="0 0 312 200" fill="none" xmlns="http://www.w3.org/2000/svg">
<g clip-path="url(#clip0_1_170)">
<path d="M137.028 72.9342C150.629 54.8355 179.545 51.9686 197.444 65.2536C204.637 70.592 209.395 78.6556 210.775 87.5846L210.898 88.4508L211.093 89.737C211.28 91.0239 211.442 92.3151 211.578 93.6081L188.642 93.569C183.571 93.5385 177.152 93.7056 172.26 92.8336C178.045 90.8079 200.984 92.245 202.339 91.3034L202.562 90.1647L202.437 89.6227C201.849 86.9217 201.847 84.3673 200.83 80.8629C198.589 72.8599 193.182 66.1188 185.857 62.195C179.511 58.8596 170.51 58.6249 163.698 60.7057C154.921 63.2926 147.567 69.3282 143.32 77.4332C137.963 87.7305 137.903 104.081 141.205 114.996C148.638 139.558 182.139 145.829 199.618 128.012C200.575 127.037 201.845 125.57 203.115 125.154L203.646 125.451C203.699 126.073 203.799 126.132 203.244 126.771C196.933 134.024 187.309 138.747 177.997 140.013C166.311 141.562 153.913 139.212 144.515 131.956C133.221 123.235 130.316 113.937 130.624 100.265C130.314 89.9482 130.497 81.6248 137.028 72.9342Z" fill="black"/>
<path d="M233.698 72.5763C247.59 54.5672 276.412 51.8824 294.235 65.5226C303.041 72.2619 306.682 81.3735 307.988 92.0167C308.052 92.8216 308.084 92.4224 307.708 93.2042C306.164 93.7865 290.698 93.4381 287.84 93.4914C283.812 93.5691 273.319 93.9392 269.999 92.8722L269.997 92.5431L270.165 92.4728L270.159 92.8507C271.758 90.4926 296.307 92.8732 298.871 91.2863L299.113 89.8732C298.668 87.1263 298.282 84.3379 297.564 81.6505C293.399 66.0654 279.777 57.1386 263.912 59.8595C254.962 61.4708 247.017 66.5685 241.822 74.0334C235.776 82.6674 236.049 88.8246 235.802 98.6886C235.446 112.891 238.333 123.539 250.488 132.099C256.697 136.472 263.371 138.044 271.014 138.226C280.656 137.544 288.394 135.242 295.33 128.465C296.208 127.608 298.969 124.839 299.972 124.707L300.331 125.155C300.064 126.924 294.983 131.243 293.336 132.462C286.644 137.316 278.666 140.084 270.406 140.419C260.014 140.524 250.143 138.779 241.744 132.698C229.597 123.906 226.688 113.2 227.104 98.9513C227.406 88.6602 226.869 81.3689 233.698 72.5763Z" fill="black"/>
<path d="M21.241 14.7349C32.3553 4.61448 47.0472 -0.651072 62.0594 0.104998C76.6964 0.751333 88.3122 7.12633 99.0164 16.7466C99.5286 17.2054 99.2395 17.875 99.1023 18.3872C98.2929 19.0183 98.7363 18.8729 97.7439 18.8775C95.3326 17.0696 93.4559 14.526 91.0476 12.7974C81.2139 5.73801 69.6847 2.40559 57.6971 4.0259C38.6727 6.59907 25.5912 19.5369 18.5896 36.8921C14.4435 47.1709 15.1858 57.7774 15.0867 68.6187C14.9891 77.0135 14.6283 85.314 15.95 93.6753C18.2091 107.597 25.8627 120.068 37.2527 128.385C55.0698 141.292 79.7851 139.652 92.4803 121.097C101.097 108.5 103.794 89.7451 102.754 74.6958L102.641 73.2515C100.805 73.6097 89.1651 73.8079 88.2928 72.648C88.8293 72.0824 89.63 71.9602 90.7976 71.8794C98.3875 71.352 106.39 71.438 114.005 71.7261C114.227 71.9055 114.447 72.0838 114.669 72.2632H114.671C114.497 78.5132 114.781 85.0243 114.168 91.189C112.761 104.311 106.728 116.503 97.1521 125.583C86.2833 135.689 71.8289 141.036 56.9998 140.437C26.3522 139.367 3.49433 114.948 2.98807 84.8081C2.90728 79.9484 3.04 75.1351 3.14823 70.2769C2.20163 48.582 4.02927 30.561 21.241 14.7349Z" fill="black"/>
</g>
<g clip-path="url(#clip1_1_170)">
<path d="M112.449 172.691C112.406 173.23 112.361 173.754 112.344 174.295C112.236 175.187 112.266 176.055 112.229 176.944C112.143 178.987 112.234 181.003 112.212 183.047C112.397 182.809 112.585 182.574 112.775 182.34C113.909 180.955 114.861 180.417 116.626 180.246C123.279 179.602 125.223 187.519 121.577 191.97C119.703 194.258 116.109 195.017 113.598 193.39C113.224 193.147 112.706 192.623 112.332 192.311C111.847 192.587 110.428 193.932 109.989 193.809C109.865 193.551 110 190.555 110.003 190.052L109.987 177.643C109.971 176.137 110.032 174.216 109.928 172.748C110.684 172.807 111.706 172.803 112.449 172.691ZM116.907 193.239C120.377 192.536 121.316 188.099 120.644 185.158C120.028 182.457 118.791 181.27 115.995 181.388C112.325 181.87 111.853 186.014 112.171 188.992C112.319 190.381 112.833 191.703 113.976 192.561C114.954 193.297 115.749 193.329 116.907 193.239Z" fill="black"/>
<path d="M82.1967 174.961C83.6582 174.804 85.6494 175.313 86.3684 176.713C87.5357 178.984 85.4274 181.114 83.6366 182.223C83.4288 182.352 82.7116 182.835 82.6006 183.005C82.7653 183.633 86.9906 188.174 87.6751 188.914C87.7183 188.961 87.857 188.988 87.9304 188.99C88.2609 188.738 90.1584 185.884 90.4612 185.342C90.7047 184.905 91.0334 184.109 91.3954 183.583C91.7555 183.984 92.1422 184.36 92.5535 184.709C91.8597 185.612 91.1555 186.546 90.4482 187.437C89.8168 188.232 89.099 188.896 88.5471 189.782C88.6303 190.082 91.1709 192.727 91.5927 193.164C91.8012 193.39 92.0922 193.644 92.3229 193.856C90.9156 193.866 90.2299 193.727 88.6901 193.861C88.3485 193.195 87.4685 192.322 86.9875 191.594C86.0829 192.086 85.288 192.789 84.294 193.279C82.1542 194.334 80.2518 194.597 77.9578 193.872C75.4672 193.084 74.1597 190.744 74.9395 188.23C75.7734 185.75 77.8937 184.643 80.0859 183.534C79.2954 182.244 78.4037 181.341 78.1589 179.711C77.7445 176.948 79.7104 175.348 82.1967 174.961ZM86.4165 190.872C85.5427 190.16 84.1071 188.3 83.2882 187.422C82.7937 186.892 81.1632 184.553 80.5774 184.26C79.8337 184.345 77.6208 186.217 77.5011 187.002C76.9527 188.051 76.9802 189.581 77.5172 190.628C77.5254 190.72 77.7716 191.09 77.8314 191.174C79.2133 193.095 81.6707 193.389 83.7513 192.568C84.8484 192.135 85.4706 191.563 86.4165 190.872ZM81.9951 182.334C82.9077 181.932 83.9801 180.827 84.5456 179.985C85.3102 178.847 85.3756 176.841 84.0473 176.056C82.8547 175.35 81.1996 175.797 80.4775 177.018C79.9564 177.94 80.0039 178.785 80.4602 179.715C80.5749 180.342 81.6171 181.779 81.9951 182.334Z" fill="black"/>
<path d="M271.888 179.981C275.872 179.676 279.35 182.661 279.656 186.649C279.961 190.636 276.98 194.117 272.996 194.425C269.01 194.733 265.529 191.748 265.222 187.758C264.916 183.768 267.901 180.285 271.888 179.981ZM272.788 193.341C274.951 193.144 276.393 191.529 276.831 189.463C277.544 186.099 276.845 180.846 272.258 181.129C271.028 181.271 269.91 181.598 269.111 182.626C267.892 184.195 267.686 186.496 267.871 188.397C268.155 191.304 269.648 193.364 272.788 193.341Z" fill="black"/>
<path d="M133.289 179.931C133.568 179.882 133.863 179.892 134.151 179.882C136.859 179.792 139.291 181.198 139.921 183.958C140.151 184.966 140.16 185.734 140.145 186.782C139.432 186.824 137.605 186.716 136.78 186.712C134.433 186.707 132.087 186.737 129.741 186.802C129.421 191.591 133.301 194.007 137.542 192.191C138.233 191.899 138.988 191.195 139.562 190.694C139.536 191.154 139.461 191.73 139.422 192.209C136.824 194.405 132.135 194.489 129.475 192.381C126.671 190.158 126.436 184.993 128.614 182.257C129.763 180.814 131.507 180.128 133.289 179.931ZM129.79 185.668C131.191 185.713 132.593 185.729 133.994 185.716C135.139 185.722 136.639 185.758 137.764 185.596C137.773 184.555 137.488 183.47 137.068 182.521C136.516 181.271 135.286 180.87 134.006 180.862C133.916 180.862 133.826 180.863 133.735 180.866C130.963 181.076 130.071 183.227 129.79 185.668Z" fill="black"/>
<path d="M21.5681 181.794C24.0123 179.673 30.1997 179.312 31.0079 183.374C31.5971 185.192 30.4507 191.846 31.5549 192.848C31.9655 192.996 32.8373 192.862 32.9399 193.26C32.7262 193.73 30.8719 194.051 30.3647 193.892C29.4803 193.613 29.2841 193.118 28.846 192.4C28.6403 192.449 27.8682 193.049 27.6261 193.197C26.0662 194.144 24.3385 194.62 22.5608 193.978C21.6556 193.651 20.9509 193.179 20.5339 192.24C19.9553 190.936 20.0974 188.897 21.3712 188.019C23.6955 186.514 26.3833 186.939 28.9451 185.728C28.9474 183.685 28.701 181.861 26.2989 181.412C25.2775 181.22 23.7707 181.474 22.94 182.135C22.4565 182.52 22.1237 182.982 21.5832 183.359L21.5681 181.794ZM23.5659 192.462C24.4812 192.979 25.3698 193.146 26.4103 192.873C27.2295 192.657 28.7449 191.751 28.8279 190.796C28.9305 189.613 28.9225 188.311 28.8786 187.125C28.8731 187.01 28.787 186.971 28.7105 186.918L28.4896 186.924C26.3364 187.319 22.0292 187.782 22.6353 190.923C22.7469 191.502 23.081 192.114 23.5659 192.462Z" fill="black"/>
<path d="M238.076 181.755C239.945 180.534 242.159 179.925 244.395 180.352C245.425 180.549 246.405 181.138 246.974 182.04C247.995 183.683 247.615 185.723 247.568 187.546C247.549 188.575 247.54 189.595 247.545 190.625C247.548 191.6 247.354 192.757 248.627 192.96C248.788 192.985 249.216 193.051 249.324 193.167C249.329 193.774 247.946 193.897 247.495 193.887C246.215 193.856 245.635 193.478 245.339 192.249C243.746 193.522 242.275 194.432 240.161 194.242C237.986 194.047 236.395 192.2 236.728 190.025C237.279 186.426 242.43 187.106 244.968 185.938C245.137 185.876 245.165 185.863 245.301 185.747C245.597 185.096 245.266 183.662 245.037 183.002C244.712 182.317 244.272 181.86 243.539 181.638C241.114 180.905 239.619 181.686 238.147 183.5C238.12 183.076 238.038 182.138 238.076 181.755ZM240.115 192.472C242.124 193.557 244.03 192.884 245.322 191.097C245.335 190.461 245.449 187.401 245.296 186.989C245.228 186.95 245.191 186.917 245.114 186.92C242.934 187.328 238.539 187.724 239.185 190.92C239.315 191.56 239.603 192.064 240.115 192.472Z" fill="black"/>
<path d="M146.008 181.713C146.628 181.455 147.225 181.068 147.852 180.808C150.352 179.772 154.37 179.887 155.371 182.947C155.405 183.047 155.428 183.169 155.503 183.241C155.649 184.04 155.608 184.982 155.601 185.805C155.595 187.041 155.574 188.277 155.539 189.513C155.518 190.347 155.396 192.165 155.975 192.796C156.345 193.167 156.835 192.901 157.27 193.073C157.327 193.383 157.152 193.557 156.862 193.642C155.309 194.093 153.882 194.072 153.342 192.306C151.436 193.604 149.865 194.724 147.391 194.091C145.355 193.57 144.283 191.613 144.823 189.601C145.514 187.024 149.004 186.917 151.105 186.528C151.91 186.379 152.673 186.123 153.396 185.724C153.422 184.547 153.535 183.401 152.659 182.438C151.432 181.087 148.603 181.217 147.241 182.299C146.918 182.555 146.575 183.248 146.13 183.232L146.082 183.101C146.032 182.688 146.024 182.14 146.008 181.713ZM147.98 192.416C149.92 193.665 152.081 192.815 153.357 191.097C153.377 190.466 153.507 187.275 153.34 186.949C153.306 186.944 153.185 186.923 153.16 186.926C151.47 187.206 148.597 187.507 147.531 188.986C147.142 189.517 146.982 190.183 147.091 190.833C147.204 191.511 147.515 191.938 147.98 192.416Z" fill="black"/>
<path d="M3.81097 172.738C4.7346 172.799 5.47383 172.79 6.39405 172.729C6.15473 173.246 6.08955 181.796 6.23125 182.649L6.30507 182.681C6.5262 182.499 6.69282 182.21 6.85081 181.966C7.43781 181.443 7.8633 181.078 8.57449 180.739C10.4496 179.844 13.1686 180.052 14.6092 181.668C15.0958 182.213 15.4364 182.873 15.5994 183.586C15.902 184.933 15.7317 186.268 15.7172 187.622C15.6949 189.708 15.5919 191.82 15.9035 193.888C14.8077 193.782 14.5127 193.773 13.4354 193.903C13.4667 191.445 13.6091 189.047 13.5777 186.559C13.6405 185.964 13.5655 184.563 13.39 184.008C12.326 180.641 8.08579 180.936 6.49136 183.684C6.08955 185.205 6.24988 185.568 6.14418 187.08C6.04687 188.645 6.06593 189.786 6.19826 191.358C6.26665 192.17 6.1826 193.046 6.30155 193.905C5.39364 193.798 4.74942 193.793 3.83218 193.905C3.82412 192.126 3.85038 190.346 3.91095 188.568C3.9515 187.355 4.05173 185.51 3.96212 184.323C4.08163 182.98 3.98893 181.04 3.99065 179.664C3.99358 177.331 3.9977 175.064 3.81097 172.738Z" fill="black"/>
<path d="M172.096 180.482C172.592 180.506 174.157 180.541 174.606 180.438C174.306 181.514 174.277 193.101 174.639 193.931C173.811 193.763 173.056 193.907 172.251 193.808C171.981 193.49 172.349 192.164 172.213 191.756C172.097 191.759 171.202 192.84 170.928 193.047C168.968 194.526 166.063 194.713 164.078 193.161C162.259 191.738 162.595 189.079 162.617 187.006C162.64 184.823 162.724 182.715 162.52 180.511C163.348 180.558 164.178 180.552 165.007 180.493C165.014 181.238 164.934 182.168 164.909 182.936C164.863 184.486 164.84 186.036 164.841 187.587C164.843 188.455 164.796 189.403 164.986 190.248C165.414 192.151 167.412 193.117 169.231 192.662C170.281 192.391 171.181 191.715 171.735 190.783C172.337 188.659 172.078 186.375 172.115 184.187C172.136 182.98 171.98 181.679 172.096 180.482Z" fill="black"/>
<path d="M287.408 182.277C287.8 181.781 288.041 181.494 288.587 181.149C290.542 179.913 293.246 179.777 295.119 181.246C296.119 182.029 296.326 182.782 296.62 183.923C296.723 185.796 296.31 192.683 296.738 193.866C295.866 193.906 295.148 193.812 294.111 193.888C294.206 193.488 294.23 191.664 294.252 191.162C294.297 190.202 294.399 189.054 294.397 188.106C294.404 187.798 294.408 187.49 294.41 187.183C294.42 185.756 294.506 183.629 293.429 182.548C292.785 181.903 291.79 181.623 290.898 181.627C289.954 181.632 288.863 181.944 288.195 182.632C287.837 183 287.55 183.453 287.396 183.945C286.705 186.16 287.107 191.372 287.133 193.871C286.179 193.79 285.542 193.799 284.589 193.89C284.961 191.264 284.826 188.249 284.853 185.578C284.858 185.056 284.847 183.303 284.744 182.859C284.663 182.038 284.655 181.215 284.566 180.389C285.526 180.501 286.093 180.513 287.056 180.398C287.021 180.931 286.919 181.952 287.05 182.423L287.141 182.525C287.316 182.476 287.287 182.455 287.408 182.277Z" fill="black"/>
<path d="M228.107 180.21C229.868 180.235 230.32 180.406 232.019 180.91C231.61 181.459 231.422 182.599 230.993 182.927C230.959 182.926 230.919 182.925 230.872 182.923C230.618 182.566 230.236 181.965 229.92 181.691C229.376 181.222 228.426 181.071 227.737 181.133C226.957 181.203 226.154 181.486 225.642 182.105C225.285 182.536 225.091 183.074 225.143 183.63C225.342 185.771 228.068 185.984 229.659 186.514C230.196 186.693 230.804 187.025 231.239 187.388C231.887 187.928 232.257 188.615 232.326 189.458C232.414 190.508 232.087 191.551 231.414 192.361C230.442 193.513 228.737 194.117 227.269 194.241C225.531 194.292 224.674 194.079 223.105 193.311C223.176 192.971 223.544 191.613 223.748 191.363C224.119 191.375 224.826 192.235 225.149 192.494C226.915 193.916 230.554 193.271 230.284 190.493C230.182 189.444 229.582 188.971 228.665 188.579C226.596 187.695 223.403 187.572 223.257 184.663C223.062 181.462 225.371 180.424 228.107 180.21Z" fill="black"/>
<path d="M255.513 172.757C255.904 172.809 258.049 172.832 258.073 172.847L258.086 172.877C257.943 173.775 257.953 175.342 257.943 176.298C257.927 178.372 257.923 180.447 257.931 182.521C257.931 185.138 257.856 187.754 257.946 190.372C257.98 191.36 257.956 192.829 258.062 193.777C257.894 193.867 256.055 193.85 255.557 193.906C255.523 192.8 255.613 191.375 255.653 190.249C255.721 189.331 255.685 188.118 255.691 187.171L255.711 181.458C255.707 180.555 255.763 177.69 255.636 176.934C255.592 175.572 255.602 174.104 255.513 172.757Z" fill="black"/>
<path d="M181.901 177.769C182.368 177.66 184.008 176.884 184.251 176.989C184.467 177.411 184.203 180.142 184.159 180.844C184.922 180.886 186.535 180.781 187.196 180.893C187.427 181.102 187.295 181.439 187.444 181.971C186.489 181.987 185.535 181.985 184.581 181.966C184.468 181.983 184.312 181.982 184.277 182.068C184.108 182.483 184.147 183.591 184.155 184.03C184.08 185.668 184.059 187.366 184.081 189.011C184.101 190.503 184.015 193.196 186.074 193.275C186.547 193.294 187.344 193.127 187.686 193.41C187.769 193.609 187.766 193.528 187.694 193.736C187.369 194.067 185.849 194.232 185.351 194.235C183.567 194.246 182.323 193.43 181.906 191.67C181.697 190.994 181.882 189.072 181.926 188.318C182.023 186.217 182.03 184.113 181.946 182.012C181.481 181.958 180.556 181.981 180.057 181.979L180.05 180.925C180.61 180.884 181.435 180.903 182.028 180.889C181.994 179.901 181.99 178.735 181.901 177.769Z" fill="black"/>
<path d="M53.4012 180.415C53.3657 180.889 53.3693 182.381 53.4969 182.891C53.5111 182.948 53.5684 182.948 53.6262 182.961C53.93 182.716 54.308 181.775 54.9939 181.22C55.8834 180.502 56.4121 180.229 57.6349 180.233C57.9332 180.234 58.0908 180.328 58.2692 180.528C58.2217 181.423 58.0952 181.851 58.1816 182.781C57.9278 182.666 57.6188 182.516 57.357 182.444C56.0467 182.079 54.4217 182.496 53.8736 183.852C53.8498 183.911 53.8054 183.991 53.8024 184.053C53.0883 186.301 53.4776 189.927 53.4729 192.318C53.4723 192.668 53.522 193.62 53.5833 193.926C52.9226 193.758 51.789 193.834 51.1222 193.875C51.2028 191.355 51.3335 188.984 51.2842 186.434C51.2451 184.409 51.1084 182.466 51.0867 180.449C52.0392 180.534 52.4436 180.516 53.4012 180.415Z" fill="black"/>
<path d="M40.387 180.47C41.0216 180.496 42.2908 180.567 42.8684 180.427C42.8125 181.946 42.8251 183.503 42.7223 185.006C42.6832 186.523 42.5936 188.994 42.7577 190.452C42.7319 191.088 42.9553 193.364 42.7632 193.738C42.6765 193.773 42.6209 193.801 42.5271 193.808C41.7943 193.708 41.1101 193.75 40.3789 193.843C40.4657 193.154 40.4597 191.966 40.4887 191.236C40.6309 187.66 40.5202 184.046 40.387 180.47Z" fill="black"/>
<path d="M41.3754 174.248C41.9547 174.178 42.5193 174.464 42.8047 174.974C43.038 175.39 43.0498 175.895 42.8361 176.322C42.6224 176.749 42.211 177.043 41.7379 177.105C40.9475 177.209 40.223 176.65 40.1226 175.859C40.0222 175.067 40.584 174.345 41.3754 174.248Z" fill="black"/>
<path d="M192.121 180.474C195.669 180.757 194.345 179.72 195.599 182.84C196.004 183.849 198.763 190.529 199.154 190.84L199.272 190.831C200.08 189.826 203.182 182.026 203.667 180.483C204.016 180.492 205.203 180.496 205.497 180.56C205.539 180.81 204.671 182.299 204.503 182.654L202.192 187.426C200.268 191.449 198.083 195.702 196.545 199.87H194.545C195.606 198.152 197.199 195.595 197.906 193.759C197.365 192.358 196.767 191.023 196.124 189.665C195.866 189.12 195.679 188.514 195.438 187.956L193.34 183.183C192.963 182.31 192.47 181.336 192.121 180.474Z" fill="black"/>
</g>
<defs>
<clipPath id="clip0_1_170">
<rect width="305.183" height="140.549" fill="white" transform="translate(2.89636)"/>
</clipPath>
<clipPath id="clip1_1_170">
<rect width="311.128" height="27.1787" fill="white" transform="translate(0 172.691)"/>
</clipPath>
</defs>
</svg>
